<svg id="레이어_1" data-name="레이어 1" xmlns="http://www.w3.org/2000/svg" viewBox="0 0 19.55 17.11"><path d="M131.94,139.8a.76.76,0,0,1,.82-.49h18c.53,0,.77.24.77.77v2.58a.64.64,0,0,1-.73.72h-18.1a.7.7,0,0,1-.72-.49Z" transform="translate(-131.94 -132.79)"/><path d="M131.94,146.33a.72.72,0,0,1,.79-.5h18a.66.66,0,0,1,.76.76v2.59a.64.64,0,0,1-.72.72q-9.06,0-18.11,0a.7.7,0,0,1-.72-.47Z" transform="translate(-131.94 -132.79)"/><path d="M131.94,133.27a.78.78,0,0,1,.84-.48H150.7c.57,0,.79.22.79.79v2.56a.63.63,0,0,1-.71.71H132.64a.72.72,0,0,1-.7-.46Z" transform="translate(-131.94 -132.79)"/></svg>